<?xml version="1.0" standalone="no"?>
<!DOCTYPE svg PUBLIC "-//W3C//DTD SVG 20010904//EN"
 "http://www.w3.org/TR/2001/REC-SVG-20010904/DTD/svg10.dtd">
<svg version="1.0" xmlns="http://www.w3.org/2000/svg"
 width="240.000000pt" height="240.000000pt" viewBox="0 0 240.000000 240.000000"
 preserveAspectRatio="xMidYMid meet">
<metadata>
Created by potrace 1.11, written by Peter Selinger 2001-2013
</metadata>
<g transform="translate(0.000000,240.000000) scale(0.100000,-0.100000)"
fill="#000000" stroke="none">
<path d="M1247 2364 c-2 -2 -23 -6 -48 -9 -40 -5 -114 -17 -177 -30 -13 -2
-32 -7 -42 -10 -10 -3 -27 -7 -37 -9 -16 -4 -99 -33 -198 -70 -17 -6 -43 -19
-58 -29 -14 -9 -33 -17 -40 -17 -8 0 -20 -7 -27 -15 -7 -8 -16 -15 -21 -15 -5
0 -28 -12 -52 -27 -237 -153 -390 -347 -473 -600 -19 -58 -36 -121 -39 -141
-2 -21 -6 -48 -9 -62 -6 -28 -17 -126 -19 -180 -4 -62 25 -210 57 -295 6 -16
11 -32 12 -35 2 -12 18 -49 50 -117 77 -161 218 -329 354 -421 30 -20 57 -40
60 -44 8 -10 214 -108 237 -113 10 -2 30 -8 46 -14 15 -6 27 -8 27 -5 0 4 6 2
13 -4 6 -5 30 -13 52 -16 35 -5 104 -19 128 -24 4 -1 8 -2 10 -3 6 -1 147 -10
196 -13 30 -1 79 1 109 6 30 5 71 10 91 13 20 2 36 4 36 5 0 1 11 3 25 5 44 5
145 33 212 59 252 94 435 241 547 439 32 57 89 202 95 242 2 11 6 34 9 50 20
99 27 292 13 375 -12 78 -19 116 -23 135 -2 11 -6 31 -9 45 -12 58 -67 203
-104 276 -72 143 -130 222 -252 343 -97 97 -114 111 -125 111 -5 0 -15 9 -23
20 -8 11 -18 20 -23 20 -5 0 -21 9 -36 19 -75 54 -246 124 -326 136 -23 3 -52
8 -65 11 -30 7 -148 13 -153 8z"/>
</g>
</svg>
